<svg xmlns="http://www.w3.org/2000/svg" xmlns:xlink="http://www.w3.org/1999/xlink" width="365" height="225" viewBox="0 0 365 225">
  <defs>
    <clipPath id="clip-path">
      <path id="Rectangle_76" data-name="Rectangle 76" d="M10,0H365a0,0,0,0,1,0,0V225a0,0,0,0,1,0,0H0a0,0,0,0,1,0,0V10A10,10,0,0,1,10,0Z" fill="#fff"/>
    </clipPath>
  </defs>
  <g id="Mask_Group_16" data-name="Mask Group 16" clip-path="url(#clip-path)">
    <g id="Group_145" data-name="Group 145" transform="translate(349.097 -25.514) rotate(90)">
      <g id="Group_136" data-name="Group 136" transform="translate(0 6.208)">
        <g id="Group_133" data-name="Group 133" transform="translate(0 420)">
          <path id="Path_262" data-name="Path 262" d="M14.192,7A7.049,7.049,0,0,0,7.1,0h0A7.049,7.049,0,0,0,0,7V82a7.048,7.048,0,0,0,7.1,7h0a7.048,7.048,0,0,0,7.1-7Z" transform="translate(0 381)" fill="#f3f3f3" fill-rule="evenodd"/>
          <path id="Path_263" data-name="Path 263" d="M11.657,5.75A5.79,5.79,0,0,0,5.828,0h0A5.789,5.789,0,0,0,0,5.75v44.5A5.789,5.789,0,0,0,5.828,56h0a5.79,5.79,0,0,0,5.829-5.75Z" transform="translate(1.268 313.5)" fill="#f3f3f3" fill-rule="evenodd"/>
          <path id="Path_264" data-name="Path 264" d="M11.657,5.75A5.79,5.79,0,0,0,5.828,0h0A5.789,5.789,0,0,0,0,5.75v209.5A5.789,5.789,0,0,0,5.828,221h0a5.79,5.79,0,0,0,5.829-5.75Z" transform="translate(1.268 74)" fill="#f3f3f3" fill-rule="evenodd"/>
          <path id="Path_265" data-name="Path 265" d="M11.657,5.75A5.79,5.79,0,0,0,5.828,0h0A5.789,5.789,0,0,0,0,5.75v48.5A5.789,5.789,0,0,0,5.828,60h0a5.79,5.79,0,0,0,5.829-5.75Z" transform="translate(1.268)" fill="#f3f3f3" fill-rule="evenodd"/>
        </g>
        <g id="Group_134" data-name="Group 134">
          <path id="Path_266" data-name="Path 266" d="M14.192,7A7.048,7.048,0,0,0,7.1,0h0A7.048,7.048,0,0,0,0,7V82a7.048,7.048,0,0,0,7.1,7h0a7.048,7.048,0,0,0,7.1-7Z" transform="translate(0 307)" fill="#f3f3f3" fill-rule="evenodd"/>
          <path id="Path_267" data-name="Path 267" d="M11.657,5.75A5.79,5.79,0,0,0,5.828,0h0A5.789,5.789,0,0,0,0,5.75v44.5A5.789,5.789,0,0,0,5.828,56h0a5.79,5.79,0,0,0,5.829-5.75Z" transform="translate(1.268 239.5)" fill="#f3f3f3" fill-rule="evenodd"/>
          <path id="Path_268" data-name="Path 268" d="M11.657,5.75A5.79,5.79,0,0,0,5.828,0h0A5.789,5.789,0,0,0,0,5.75v209.5A5.789,5.789,0,0,0,5.828,221h0a5.79,5.79,0,0,0,5.829-5.75Z" transform="translate(1.268)" fill="#f3f3f3" fill-rule="evenodd"/>
        </g>
        <g id="Group_135" data-name="Group 135" transform="translate(36.83 53)">
          <path id="Path_269" data-name="Path 269" d="M10.474,5.167A5.2,5.2,0,0,0,5.237,0h0A5.2,5.2,0,0,0,0,5.167V54.834A5.2,5.2,0,0,0,5.237,60h0a5.2,5.2,0,0,0,5.237-5.166Z" transform="translate(2.197 780.166)" fill="#f3f3f3" fill-rule="evenodd"/>
          <path id="Path_270" data-name="Path 270" d="M11.15,5.5A5.538,5.538,0,0,0,5.575,0h0A5.538,5.538,0,0,0,0,5.5v146A5.538,5.538,0,0,0,5.575,157h0a5.538,5.538,0,0,0,5.575-5.5Z" transform="translate(1.859 608.5)" fill="#f3f3f3" fill-rule="evenodd"/>
          <path id="Path_271" data-name="Path 271" d="M12.839,6.333A6.376,6.376,0,0,0,6.42,0h0A6.377,6.377,0,0,0,0,6.333V62.667A6.377,6.377,0,0,0,6.42,69h0a6.376,6.376,0,0,0,6.419-6.333Z" transform="translate(1.014 521.833)" fill="#f3f3f3" fill-rule="evenodd"/>
          <path id="Path_272" data-name="Path 272" d="M12.839,6.333A6.376,6.376,0,0,0,6.42,0h0A6.376,6.376,0,0,0,0,6.333V62.667A6.376,6.376,0,0,0,6.42,69h0a6.376,6.376,0,0,0,6.419-6.333Z" transform="translate(1.014 124.833)" fill="#f3f3f3" fill-rule="evenodd"/>
          <path id="Path_273" data-name="Path 273" d="M14.867,7.333A7.384,7.384,0,0,0,7.434,0h0A7.384,7.384,0,0,0,0,7.333V174a7.384,7.384,0,0,0,7.434,7.333h0A7.384,7.384,0,0,0,14.867,174Z" transform="translate(0 332.833)" fill="#f3f3f3" fill-rule="evenodd"/>
          <path id="Path_274" data-name="Path 274" d="M13.516,6.667A6.713,6.713,0,0,0,6.758,0h0A6.712,6.712,0,0,0,0,6.667V98.333A6.712,6.712,0,0,0,6.758,105h0a6.713,6.713,0,0,0,6.758-6.667Z" transform="translate(0.676 214.5)" fill="#f3f3f3" fill-rule="evenodd"/>
          <path id="Path_275" data-name="Path 275" d="M13.516,6.667A6.713,6.713,0,0,0,6.758,0h0A6.712,6.712,0,0,0,0,6.667V98.333A6.712,6.712,0,0,0,6.758,105h0a6.713,6.713,0,0,0,6.758-6.667Z" transform="translate(0.676)" fill="#f3f3f3" fill-rule="evenodd"/>
        </g>
      </g>
      <g id="Group_140" data-name="Group 140" transform="translate(78.957 47.417)">
        <g id="Group_137" data-name="Group 137" transform="translate(0 3.166)">
          <path id="Path_276" data-name="Path 276" d="M14.191,82a7.048,7.048,0,0,1-7.1,7h0A7.048,7.048,0,0,1,0,82V7A7.048,7.048,0,0,1,7.1,0h0a7.048,7.048,0,0,1,7.1,7Z" fill="#f3f3f3" fill-rule="evenodd"/>
          <path id="Path_277" data-name="Path 277" d="M11.657,50.25A5.789,5.789,0,0,1,5.828,56h0A5.789,5.789,0,0,1,0,50.25V5.75A5.789,5.789,0,0,1,5.828,0h0a5.789,5.789,0,0,1,5.829,5.75Z" transform="translate(1.267 100.5)" fill="#f3f3f3" fill-rule="evenodd"/>
          <path id="Path_278" data-name="Path 278" d="M11.657,215.25A5.789,5.789,0,0,1,5.828,221h0A5.789,5.789,0,0,1,0,215.25V5.75A5.789,5.789,0,0,1,5.828,0h0a5.789,5.789,0,0,1,5.829,5.75Z" transform="translate(1.267 175)" fill="#f3f3f3" fill-rule="evenodd"/>
          <path id="Path_279" data-name="Path 279" d="M11.657,54.25A5.789,5.789,0,0,1,5.828,60h0A5.789,5.789,0,0,1,0,54.25V5.75A5.789,5.789,0,0,1,5.828,0h0a5.789,5.789,0,0,1,5.829,5.75Z" transform="translate(1.267 410)" fill="#f3f3f3" fill-rule="evenodd"/>
        </g>
        <g id="Group_138" data-name="Group 138" transform="translate(0 497.166)">
          <path id="Path_280" data-name="Path 280" d="M14.191,82a7.048,7.048,0,0,1-7.1,7h0A7.048,7.048,0,0,1,0,82V7A7.048,7.048,0,0,1,7.1,0h0a7.048,7.048,0,0,1,7.1,7Z" fill="#f3f3f3" fill-rule="evenodd"/>
          <path id="Path_281" data-name="Path 281" d="M11.657,50.25A5.789,5.789,0,0,1,5.828,56h0A5.789,5.789,0,0,1,0,50.25V5.75A5.789,5.789,0,0,1,5.828,0h0a5.789,5.789,0,0,1,5.829,5.75Z" transform="translate(1.267 100.5)" fill="#f3f3f3" fill-rule="evenodd"/>
          <path id="Path_282" data-name="Path 282" d="M11.657,215.25A5.789,5.789,0,0,1,5.828,221h0A5.789,5.789,0,0,1,0,215.25V5.75A5.789,5.789,0,0,1,5.828,0h0a5.789,5.789,0,0,1,5.829,5.75Z" transform="translate(1.267 175)" fill="#f3f3f3" fill-rule="evenodd"/>
        </g>
        <g id="Group_139" data-name="Group 139" transform="translate(36.829)">
          <path id="Path_283" data-name="Path 283" d="M10.475,54.833A5.2,5.2,0,0,1,5.237,60h0A5.2,5.2,0,0,1,0,54.833V5.166A5.2,5.2,0,0,1,5.237,0h0a5.2,5.2,0,0,1,5.238,5.166Z" transform="translate(2.197)" fill="#f3f3f3" fill-rule="evenodd"/>
          <path id="Path_284" data-name="Path 284" d="M11.15,151.5A5.538,5.538,0,0,1,5.574,157h0A5.537,5.537,0,0,1,0,151.5V5.5A5.537,5.537,0,0,1,5.574,0h0A5.538,5.538,0,0,1,11.15,5.5Z" transform="translate(1.86 74.666)" fill="#f3f3f3" fill-rule="evenodd"/>
          <path id="Path_285" data-name="Path 285" d="M12.84,62.667A6.377,6.377,0,0,1,6.42,69h0A6.378,6.378,0,0,1,0,62.667V6.333A6.377,6.377,0,0,1,6.42,0h0a6.376,6.376,0,0,1,6.42,6.333Z" transform="translate(1.014 249.333)" fill="#f3f3f3" fill-rule="evenodd"/>
          <path id="Path_286" data-name="Path 286" d="M12.84,62.667A6.376,6.376,0,0,1,6.42,69h0A6.377,6.377,0,0,1,0,62.667V6.333A6.377,6.377,0,0,1,6.42,0h0a6.376,6.376,0,0,1,6.42,6.333Z" transform="translate(1.014 646.333)" fill="#f3f3f3" fill-rule="evenodd"/>
          <path id="Path_287" data-name="Path 287" d="M14.867,174a7.383,7.383,0,0,1-7.433,7.333h0A7.384,7.384,0,0,1,0,174V7.333A7.384,7.384,0,0,1,7.434,0h0a7.383,7.383,0,0,1,7.433,7.333Z" transform="translate(0 326)" fill="#f3f3f3" fill-rule="evenodd"/>
          <path id="Path_288" data-name="Path 288" d="M13.515,98.333A6.712,6.712,0,0,1,6.757,105h0A6.712,6.712,0,0,1,0,98.333V6.667A6.712,6.712,0,0,1,6.757,0h0a6.712,6.712,0,0,1,6.758,6.667Z" transform="translate(0.677 520.666)" fill="#f3f3f3" fill-rule="evenodd"/>
          <path id="Path_289" data-name="Path 289" d="M13.515,98.333A6.712,6.712,0,0,1,6.757,105h0A6.712,6.712,0,0,1,0,98.333V6.667A6.712,6.712,0,0,1,6.757,0h0a6.712,6.712,0,0,1,6.758,6.667Z" transform="translate(0.677 735.166)" fill="#f3f3f3" fill-rule="evenodd"/>
        </g>
      </g>
      <g id="Group_144" data-name="Group 144" transform="translate(157.914)">
        <g id="Group_141" data-name="Group 141" transform="translate(0 420)">
          <path id="Path_290" data-name="Path 290" d="M14.191,7A7.049,7.049,0,0,0,7.1,0h0A7.048,7.048,0,0,0,0,7V82a7.048,7.048,0,0,0,7.1,7h0a7.048,7.048,0,0,0,7.1-7Z" transform="translate(0 381)" fill="#f3f3f3" fill-rule="evenodd"/>
          <path id="Path_291" data-name="Path 291" d="M11.657,5.75A5.789,5.789,0,0,0,5.828,0h0A5.789,5.789,0,0,0,0,5.75v44.5A5.789,5.789,0,0,0,5.828,56h0a5.789,5.789,0,0,0,5.829-5.75Z" transform="translate(1.267 313.5)" fill="#f3f3f3" fill-rule="evenodd"/>
          <path id="Path_292" data-name="Path 292" d="M11.657,5.75A5.789,5.789,0,0,0,5.828,0h0A5.789,5.789,0,0,0,0,5.75v209.5A5.789,5.789,0,0,0,5.828,221h0a5.789,5.789,0,0,0,5.829-5.75Z" transform="translate(1.267 74)" fill="#f3f3f3" fill-rule="evenodd"/>
          <path id="Path_293" data-name="Path 293" d="M11.657,5.75A5.789,5.789,0,0,0,5.828,0h0A5.789,5.789,0,0,0,0,5.75v48.5A5.789,5.789,0,0,0,5.828,60h0a5.789,5.789,0,0,0,5.829-5.75Z" transform="translate(1.267)" fill="#f3f3f3" fill-rule="evenodd"/>
        </g>
        <g id="Group_142" data-name="Group 142">
          <path id="Path_294" data-name="Path 294" d="M14.191,7A7.048,7.048,0,0,0,7.1,0h0A7.048,7.048,0,0,0,0,7V82a7.048,7.048,0,0,0,7.1,7h0a7.048,7.048,0,0,0,7.1-7Z" transform="translate(0 307)" fill="#f3f3f3" fill-rule="evenodd"/>
          <path id="Path_295" data-name="Path 295" d="M11.657,5.75A5.789,5.789,0,0,0,5.828,0h0A5.789,5.789,0,0,0,0,5.75v44.5A5.789,5.789,0,0,0,5.828,56h0a5.789,5.789,0,0,0,5.829-5.75Z" transform="translate(1.267 239.5)" fill="#f3f3f3" fill-rule="evenodd"/>
          <path id="Path_296" data-name="Path 296" d="M11.657,5.75A5.789,5.789,0,0,0,5.828,0h0A5.789,5.789,0,0,0,0,5.75v209.5A5.789,5.789,0,0,0,5.828,221h0a5.789,5.789,0,0,0,5.829-5.75Z" transform="translate(1.267)" fill="#f3f3f3" fill-rule="evenodd"/>
        </g>
        <g id="Group_143" data-name="Group 143" transform="translate(36.83 53)">
          <path id="Path_297" data-name="Path 297" d="M10.475,5.167A5.2,5.2,0,0,0,5.237,0h0A5.2,5.2,0,0,0,0,5.167V54.834A5.2,5.2,0,0,0,5.237,60h0a5.2,5.2,0,0,0,5.238-5.166Z" transform="translate(2.196 780.166)" fill="#f3f3f3" fill-rule="evenodd"/>
          <path id="Path_298" data-name="Path 298" d="M11.15,5.5A5.539,5.539,0,0,0,5.574,0h0A5.537,5.537,0,0,0,0,5.5v146A5.537,5.537,0,0,0,5.574,157h0a5.539,5.539,0,0,0,5.576-5.5Z" transform="translate(1.859 608.5)" fill="#f3f3f3" fill-rule="evenodd"/>
          <path id="Path_299" data-name="Path 299" d="M12.84,6.333A6.377,6.377,0,0,0,6.42,0h0A6.377,6.377,0,0,0,0,6.333V62.667A6.377,6.377,0,0,0,6.42,69h0a6.377,6.377,0,0,0,6.42-6.333Z" transform="translate(1.013 521.833)" fill="#f3f3f3" fill-rule="evenodd"/>
          <path id="Path_300" data-name="Path 300" d="M12.84,6.333A6.376,6.376,0,0,0,6.42,0h0A6.377,6.377,0,0,0,0,6.333V62.667A6.377,6.377,0,0,0,6.42,69h0a6.376,6.376,0,0,0,6.42-6.333Z" transform="translate(1.013 124.833)" fill="#f3f3f3" fill-rule="evenodd"/>
          <path id="Path_301" data-name="Path 301" d="M14.867,7.333A7.384,7.384,0,0,0,7.433,0h0A7.383,7.383,0,0,0,0,7.333V174a7.383,7.383,0,0,0,7.433,7.333h0A7.384,7.384,0,0,0,14.867,174Z" transform="translate(0 332.833)" fill="#f3f3f3" fill-rule="evenodd"/>
          <path id="Path_302" data-name="Path 302" d="M13.516,6.667A6.712,6.712,0,0,0,6.758,0h0A6.713,6.713,0,0,0,0,6.667V98.333A6.713,6.713,0,0,0,6.758,105h0a6.712,6.712,0,0,0,6.758-6.667Z" transform="translate(0.675 214.5)" fill="#f3f3f3" fill-rule="evenodd"/>
          <path id="Path_303" data-name="Path 303" d="M13.516,6.667A6.712,6.712,0,0,0,6.758,0h0A6.713,6.713,0,0,0,0,6.667V98.333A6.713,6.713,0,0,0,6.758,105h0a6.712,6.712,0,0,0,6.758-6.667Z" transform="translate(0.675)" fill="#f3f3f3" fill-rule="evenodd"/>
        </g>
      </g>
    </g>
  </g>
</svg>
