<svg xmlns="http://www.w3.org/2000/svg" xmlns:xlink="http://www.w3.org/1999/xlink" width="365" height="200" viewBox="0 0 365 200">
  <defs>
    <clipPath id="clip-path">
      <path id="Rectangle_77" data-name="Rectangle 77" d="M0,0H355a10,10,0,0,1,10,10V200a0,0,0,0,1,0,0H0a0,0,0,0,1,0,0V0A0,0,0,0,1,0,0Z" fill="#fff"/>
    </clipPath>
  </defs>
  <g id="Mask_Group_17" data-name="Mask Group 17" clip-path="url(#clip-path)">
    <g id="Group_158" data-name="Group 158" transform="translate(957.097 11.486) rotate(90)">
      <g id="Group_149" data-name="Group 149" transform="translate(0 6.208)">
        <g id="Group_146" data-name="Group 146" transform="translate(0 420)">
          <path id="Path_304" data-name="Path 304" d="M14.192,7A7.049,7.049,0,0,0,7.1,0h0A7.049,7.049,0,0,0,0,7V82a7.048,7.048,0,0,0,7.1,7h0a7.048,7.048,0,0,0,7.1-7Z" transform="translate(0 381)" fill="#f3f3f3" fill-rule="evenodd"/>
          <path id="Path_305" data-name="Path 305" d="M11.657,5.75A5.79,5.79,0,0,0,5.828,0h0A5.789,5.789,0,0,0,0,5.75v44.5A5.789,5.789,0,0,0,5.828,56h0a5.79,5.79,0,0,0,5.829-5.75Z" transform="translate(1.268 313.5)" fill="#f3f3f3" fill-rule="evenodd"/>
          <path id="Path_306" data-name="Path 306" d="M11.657,5.75A5.79,5.79,0,0,0,5.828,0h0A5.789,5.789,0,0,0,0,5.75v209.5A5.789,5.789,0,0,0,5.828,221h0a5.79,5.79,0,0,0,5.829-5.75Z" transform="translate(1.268 74)" fill="#f3f3f3" fill-rule="evenodd"/>
          <path id="Path_307" data-name="Path 307" d="M11.657,5.75A5.79,5.79,0,0,0,5.828,0h0A5.789,5.789,0,0,0,0,5.75v48.5A5.789,5.789,0,0,0,5.828,60h0a5.79,5.79,0,0,0,5.829-5.75Z" transform="translate(1.268)" fill="#f3f3f3" fill-rule="evenodd"/>
        </g>
        <g id="Group_147" data-name="Group 147">
          <path id="Path_308" data-name="Path 308" d="M14.192,7A7.048,7.048,0,0,0,7.1,0h0A7.048,7.048,0,0,0,0,7V82a7.048,7.048,0,0,0,7.1,7h0a7.048,7.048,0,0,0,7.1-7Z" transform="translate(0 307)" fill="#f3f3f3" fill-rule="evenodd"/>
          <path id="Path_309" data-name="Path 309" d="M11.657,5.75A5.79,5.79,0,0,0,5.828,0h0A5.789,5.789,0,0,0,0,5.75v44.5A5.789,5.789,0,0,0,5.828,56h0a5.79,5.79,0,0,0,5.829-5.75Z" transform="translate(1.268 239.5)" fill="#f3f3f3" fill-rule="evenodd"/>
          <path id="Path_310" data-name="Path 310" d="M11.657,5.75A5.79,5.79,0,0,0,5.828,0h0A5.789,5.789,0,0,0,0,5.75v209.5A5.789,5.789,0,0,0,5.828,221h0a5.79,5.79,0,0,0,5.829-5.75Z" transform="translate(1.268)" fill="#f3f3f3" fill-rule="evenodd"/>
        </g>
        <g id="Group_148" data-name="Group 148" transform="translate(36.83 53)">
          <path id="Path_311" data-name="Path 311" d="M10.474,5.167A5.2,5.2,0,0,0,5.237,0h0A5.2,5.2,0,0,0,0,5.167V54.834A5.2,5.2,0,0,0,5.237,60h0a5.2,5.2,0,0,0,5.237-5.166Z" transform="translate(2.197 780.166)" fill="#f3f3f3" fill-rule="evenodd"/>
          <path id="Path_312" data-name="Path 312" d="M11.15,5.5A5.538,5.538,0,0,0,5.575,0h0A5.538,5.538,0,0,0,0,5.5v146A5.538,5.538,0,0,0,5.575,157h0a5.538,5.538,0,0,0,5.575-5.5Z" transform="translate(1.859 608.5)" fill="#f3f3f3" fill-rule="evenodd"/>
          <path id="Path_313" data-name="Path 313" d="M12.839,6.333A6.376,6.376,0,0,0,6.42,0h0A6.377,6.377,0,0,0,0,6.333V62.667A6.377,6.377,0,0,0,6.42,69h0a6.376,6.376,0,0,0,6.419-6.333Z" transform="translate(1.014 521.833)" fill="#f3f3f3" fill-rule="evenodd"/>
          <path id="Path_314" data-name="Path 314" d="M12.839,6.333A6.376,6.376,0,0,0,6.42,0h0A6.376,6.376,0,0,0,0,6.333V62.667A6.376,6.376,0,0,0,6.42,69h0a6.376,6.376,0,0,0,6.419-6.333Z" transform="translate(1.014 124.833)" fill="#f3f3f3" fill-rule="evenodd"/>
          <path id="Path_315" data-name="Path 315" d="M14.867,7.333A7.384,7.384,0,0,0,7.434,0h0A7.384,7.384,0,0,0,0,7.333V174a7.384,7.384,0,0,0,7.434,7.333h0A7.384,7.384,0,0,0,14.867,174Z" transform="translate(0 332.833)" fill="#f3f3f3" fill-rule="evenodd"/>
          <path id="Path_316" data-name="Path 316" d="M13.516,6.667A6.713,6.713,0,0,0,6.758,0h0A6.712,6.712,0,0,0,0,6.667V98.333A6.712,6.712,0,0,0,6.758,105h0a6.713,6.713,0,0,0,6.758-6.667Z" transform="translate(0.676 214.5)" fill="#f3f3f3" fill-rule="evenodd"/>
          <path id="Path_317" data-name="Path 317" d="M13.516,6.667A6.713,6.713,0,0,0,6.758,0h0A6.712,6.712,0,0,0,0,6.667V98.333A6.712,6.712,0,0,0,6.758,105h0a6.713,6.713,0,0,0,6.758-6.667Z" transform="translate(0.676)" fill="#f3f3f3" fill-rule="evenodd"/>
        </g>
      </g>
      <g id="Group_153" data-name="Group 153" transform="translate(78.957 47.417)">
        <g id="Group_150" data-name="Group 150" transform="translate(0 3.166)">
          <path id="Path_318" data-name="Path 318" d="M14.191,82a7.048,7.048,0,0,1-7.1,7h0A7.048,7.048,0,0,1,0,82V7A7.048,7.048,0,0,1,7.1,0h0a7.048,7.048,0,0,1,7.1,7Z" fill="#f3f3f3" fill-rule="evenodd"/>
          <path id="Path_319" data-name="Path 319" d="M11.657,50.25A5.789,5.789,0,0,1,5.828,56h0A5.789,5.789,0,0,1,0,50.25V5.75A5.789,5.789,0,0,1,5.828,0h0a5.789,5.789,0,0,1,5.829,5.75Z" transform="translate(1.267 100.5)" fill="#f3f3f3" fill-rule="evenodd"/>
          <path id="Path_320" data-name="Path 320" d="M11.657,215.25A5.789,5.789,0,0,1,5.828,221h0A5.789,5.789,0,0,1,0,215.25V5.75A5.789,5.789,0,0,1,5.828,0h0a5.789,5.789,0,0,1,5.829,5.75Z" transform="translate(1.267 175)" fill="#f3f3f3" fill-rule="evenodd"/>
          <path id="Path_321" data-name="Path 321" d="M11.657,54.25A5.789,5.789,0,0,1,5.828,60h0A5.789,5.789,0,0,1,0,54.25V5.75A5.789,5.789,0,0,1,5.828,0h0a5.789,5.789,0,0,1,5.829,5.75Z" transform="translate(1.267 410)" fill="#f3f3f3" fill-rule="evenodd"/>
        </g>
        <g id="Group_151" data-name="Group 151" transform="translate(0 497.166)">
          <path id="Path_322" data-name="Path 322" d="M14.191,82a7.048,7.048,0,0,1-7.1,7h0A7.048,7.048,0,0,1,0,82V7A7.048,7.048,0,0,1,7.1,0h0a7.048,7.048,0,0,1,7.1,7Z" fill="#f3f3f3" fill-rule="evenodd"/>
          <path id="Path_323" data-name="Path 323" d="M11.657,50.25A5.789,5.789,0,0,1,5.828,56h0A5.789,5.789,0,0,1,0,50.25V5.75A5.789,5.789,0,0,1,5.828,0h0a5.789,5.789,0,0,1,5.829,5.75Z" transform="translate(1.267 100.5)" fill="#f3f3f3" fill-rule="evenodd"/>
          <path id="Path_324" data-name="Path 324" d="M11.657,215.25A5.789,5.789,0,0,1,5.828,221h0A5.789,5.789,0,0,1,0,215.25V5.75A5.789,5.789,0,0,1,5.828,0h0a5.789,5.789,0,0,1,5.829,5.75Z" transform="translate(1.267 175)" fill="#f3f3f3" fill-rule="evenodd"/>
        </g>
        <g id="Group_152" data-name="Group 152" transform="translate(36.829)">
          <path id="Path_325" data-name="Path 325" d="M10.475,54.833A5.2,5.2,0,0,1,5.237,60h0A5.2,5.2,0,0,1,0,54.833V5.166A5.2,5.2,0,0,1,5.237,0h0a5.2,5.2,0,0,1,5.238,5.166Z" transform="translate(2.197)" fill="#f3f3f3" fill-rule="evenodd"/>
          <path id="Path_326" data-name="Path 326" d="M11.15,151.5A5.538,5.538,0,0,1,5.574,157h0A5.537,5.537,0,0,1,0,151.5V5.5A5.537,5.537,0,0,1,5.574,0h0A5.538,5.538,0,0,1,11.15,5.5Z" transform="translate(1.86 74.666)" fill="#f3f3f3" fill-rule="evenodd"/>
          <path id="Path_327" data-name="Path 327" d="M12.84,62.667A6.377,6.377,0,0,1,6.42,69h0A6.378,6.378,0,0,1,0,62.667V6.333A6.377,6.377,0,0,1,6.42,0h0a6.376,6.376,0,0,1,6.42,6.333Z" transform="translate(1.014 249.333)" fill="#f3f3f3" fill-rule="evenodd"/>
          <path id="Path_328" data-name="Path 328" d="M12.84,62.667A6.376,6.376,0,0,1,6.42,69h0A6.377,6.377,0,0,1,0,62.667V6.333A6.377,6.377,0,0,1,6.42,0h0a6.376,6.376,0,0,1,6.42,6.333Z" transform="translate(1.014 646.333)" fill="#f3f3f3" fill-rule="evenodd"/>
          <path id="Path_329" data-name="Path 329" d="M14.867,174a7.383,7.383,0,0,1-7.433,7.333h0A7.384,7.384,0,0,1,0,174V7.333A7.384,7.384,0,0,1,7.434,0h0a7.383,7.383,0,0,1,7.433,7.333Z" transform="translate(0 326)" fill="#f3f3f3" fill-rule="evenodd"/>
          <path id="Path_330" data-name="Path 330" d="M13.515,98.333A6.712,6.712,0,0,1,6.757,105h0A6.712,6.712,0,0,1,0,98.333V6.667A6.712,6.712,0,0,1,6.757,0h0a6.712,6.712,0,0,1,6.758,6.667Z" transform="translate(0.677 520.666)" fill="#f3f3f3" fill-rule="evenodd"/>
          <path id="Path_331" data-name="Path 331" d="M13.515,98.333A6.712,6.712,0,0,1,6.757,105h0A6.712,6.712,0,0,1,0,98.333V6.667A6.712,6.712,0,0,1,6.757,0h0a6.712,6.712,0,0,1,6.758,6.667Z" transform="translate(0.677 735.166)" fill="#f3f3f3" fill-rule="evenodd"/>
        </g>
      </g>
      <g id="Group_157" data-name="Group 157" transform="translate(157.914)">
        <g id="Group_154" data-name="Group 154" transform="translate(0 420)">
          <path id="Path_332" data-name="Path 332" d="M14.191,7A7.049,7.049,0,0,0,7.1,0h0A7.048,7.048,0,0,0,0,7V82a7.048,7.048,0,0,0,7.1,7h0a7.048,7.048,0,0,0,7.1-7Z" transform="translate(0 381)" fill="#f3f3f3" fill-rule="evenodd"/>
          <path id="Path_333" data-name="Path 333" d="M11.657,5.75A5.789,5.789,0,0,0,5.828,0h0A5.789,5.789,0,0,0,0,5.75v44.5A5.789,5.789,0,0,0,5.828,56h0a5.789,5.789,0,0,0,5.829-5.75Z" transform="translate(1.267 313.5)" fill="#f3f3f3" fill-rule="evenodd"/>
          <path id="Path_334" data-name="Path 334" d="M11.657,5.75A5.789,5.789,0,0,0,5.828,0h0A5.789,5.789,0,0,0,0,5.75v209.5A5.789,5.789,0,0,0,5.828,221h0a5.789,5.789,0,0,0,5.829-5.75Z" transform="translate(1.267 74)" fill="#f3f3f3" fill-rule="evenodd"/>
          <path id="Path_335" data-name="Path 335" d="M11.657,5.75A5.789,5.789,0,0,0,5.828,0h0A5.789,5.789,0,0,0,0,5.75v48.5A5.789,5.789,0,0,0,5.828,60h0a5.789,5.789,0,0,0,5.829-5.75Z" transform="translate(1.267)" fill="#f3f3f3" fill-rule="evenodd"/>
        </g>
        <g id="Group_155" data-name="Group 155">
          <path id="Path_336" data-name="Path 336" d="M14.191,7A7.048,7.048,0,0,0,7.1,0h0A7.048,7.048,0,0,0,0,7V82a7.048,7.048,0,0,0,7.1,7h0a7.048,7.048,0,0,0,7.1-7Z" transform="translate(0 307)" fill="#f3f3f3" fill-rule="evenodd"/>
          <path id="Path_337" data-name="Path 337" d="M11.657,5.75A5.789,5.789,0,0,0,5.828,0h0A5.789,5.789,0,0,0,0,5.75v44.5A5.789,5.789,0,0,0,5.828,56h0a5.789,5.789,0,0,0,5.829-5.75Z" transform="translate(1.267 239.5)" fill="#f3f3f3" fill-rule="evenodd"/>
          <path id="Path_338" data-name="Path 338" d="M11.657,5.75A5.789,5.789,0,0,0,5.828,0h0A5.789,5.789,0,0,0,0,5.75v209.5A5.789,5.789,0,0,0,5.828,221h0a5.789,5.789,0,0,0,5.829-5.75Z" transform="translate(1.267)" fill="#f3f3f3" fill-rule="evenodd"/>
        </g>
        <g id="Group_156" data-name="Group 156" transform="translate(36.83 53)">
          <path id="Path_339" data-name="Path 339" d="M10.475,5.167A5.2,5.2,0,0,0,5.237,0h0A5.2,5.2,0,0,0,0,5.167V54.834A5.2,5.2,0,0,0,5.237,60h0a5.2,5.2,0,0,0,5.238-5.166Z" transform="translate(2.196 780.166)" fill="#f3f3f3" fill-rule="evenodd"/>
          <path id="Path_340" data-name="Path 340" d="M11.15,5.5A5.539,5.539,0,0,0,5.574,0h0A5.537,5.537,0,0,0,0,5.5v146A5.537,5.537,0,0,0,5.574,157h0a5.539,5.539,0,0,0,5.576-5.5Z" transform="translate(1.859 608.5)" fill="#f3f3f3" fill-rule="evenodd"/>
          <path id="Path_341" data-name="Path 341" d="M12.84,6.333A6.377,6.377,0,0,0,6.42,0h0A6.377,6.377,0,0,0,0,6.333V62.667A6.377,6.377,0,0,0,6.42,69h0a6.377,6.377,0,0,0,6.42-6.333Z" transform="translate(1.013 521.833)" fill="#f3f3f3" fill-rule="evenodd"/>
          <path id="Path_342" data-name="Path 342" d="M12.84,6.333A6.376,6.376,0,0,0,6.42,0h0A6.377,6.377,0,0,0,0,6.333V62.667A6.377,6.377,0,0,0,6.42,69h0a6.376,6.376,0,0,0,6.42-6.333Z" transform="translate(1.013 124.833)" fill="#f3f3f3" fill-rule="evenodd"/>
          <path id="Path_343" data-name="Path 343" d="M14.867,7.333A7.384,7.384,0,0,0,7.433,0h0A7.383,7.383,0,0,0,0,7.333V174a7.383,7.383,0,0,0,7.433,7.333h0A7.384,7.384,0,0,0,14.867,174Z" transform="translate(0 332.833)" fill="#f3f3f3" fill-rule="evenodd"/>
          <path id="Path_344" data-name="Path 344" d="M13.516,6.667A6.712,6.712,0,0,0,6.758,0h0A6.713,6.713,0,0,0,0,6.667V98.333A6.713,6.713,0,0,0,6.758,105h0a6.712,6.712,0,0,0,6.758-6.667Z" transform="translate(0.675 214.5)" fill="#f3f3f3" fill-rule="evenodd"/>
          <path id="Path_345" data-name="Path 345" d="M13.516,6.667A6.712,6.712,0,0,0,6.758,0h0A6.713,6.713,0,0,0,0,6.667V98.333A6.713,6.713,0,0,0,6.758,105h0a6.712,6.712,0,0,0,6.758-6.667Z" transform="translate(0.675)" fill="#f3f3f3" fill-rule="evenodd"/>
        </g>
      </g>
    </g>
  </g>
</svg>
